<svg version="1.1" xmlns="http://www.w3.org/2000/svg" viewBox="-21.45064639612743 -7.977364087135867 42.90129279225485 19.449533885015473" fill="none" stroke="black" stroke-width="0.6%" vector-effect="non-scaling-stroke">
    <path d="M -20.14591 2.4275 L -1.04491 10.23205 L -1.04491 5.39835 A 2 0.51153 180 0 0 1.60298 5.57672 L 1.71153 5.56053 L 19.51181 2.71076 L 19.71592 2.67332 A 2 0.51153 180 0 0 20.45065 2.27717 A 2 0.51153 180 0 0 20.14591 2.00576 L 9.00366 -2.54689 A 2 0.51153 180 0 0 8.55739 -2.675" />
    <path d="M -20.14591 2.4275 L -20.14591 0.49402 L -12.18716 3.74592 L -12.18716 0.8457 L -1.04491 5.39835" />
    <path d="M -20.45065 2.15609 A 2 0.51153 180 0 0 -20.14591 2.4275" />
    <path d="M -1.04491 10.23205 A 2 0.51153 180 0 0 1.60298 10.41042 L 1.60298 5.57672" />
    <path d="M 1.60298 10.41042 L 1.71153 10.39423 L 19.51181 7.54445 L 19.71592 7.50702 A 2 0.51153 180 0 0 20.45065 7.11087" />
    <path d="M -8.37281 0.23503 L -5.18931 1.53579 A 2 0.51153 180 0 0 -2.43288 1.69797 L -2.43288 0.73123 A 5 2.56468 80.90429 0 0 -5.87622 -5.28986 L -5.02858 -5.42557" />
    <path d="M -8.37281 0.23503 A 2 0.51153 0 0 1 -8.67755 -0.03638" />
    <path d="M -8.67755 -0.31966 L -11.55306 0.1407 L -11.75717 0.17814 A 2 0.51153 180 0 0 -12.49189 0.57429 A 2 0.51153 180 0 0 -12.18716 0.8457" />
    <path d="M 7.73871 0.06953 A 2 0.51153 180 0 0 8.67755 -0.36406 L 8.67755 -1.3308 C 8.68 -1.38 8.68 -1.43 8.67604 -1.47919 C 8.68 -1.53 8.67 -1.58 8.67155 -1.62808 C 8.67 -1.68 8.67 -1.73 8.66407 -1.77735 C 8.66 -1.83 8.66 -1.88 8.65363 -1.92686 C 8.65 -1.98 8.65 -2.03 8.64025 -2.07648 C 8.64 -2.13 8.63 -2.18 8.62395 -2.22608 C 8.62 -2.28 8.61 -2.33 8.60474 -2.37552 C 8.6 -2.43 8.59 -2.48 8.58265 -2.52465 C 8.57 -2.59 8.56 -2.66 8.54801 -2.72671 C 8.54 -2.79 8.52 -2.86 8.50814 -2.9276 C 8.49 -2.99 8.48 -3.06 8.4631 -3.12697 C 8.45 -3.19 8.43 -3.26 8.41294 -3.32448 C 8.4 -3.39 8.38 -3.46 8.35773 -3.5198 C 8.34 -3.58 8.32 -3.65 8.29753 -3.71259 C 8.28 -3.78 8.25 -3.84 8.23241 -3.90256 C 8.21 -3.97 8.19 -4.03 8.16241 -4.08939 C 8.14 -4.14 8.13 -4.18 8.10584 -4.22948 C 8.09 -4.28 8.07 -4.32 8.04648 -4.36747 C 8.03 -4.41 8.01 -4.46 7.98435 -4.50324 C 7.96 -4.55 7.94 -4.59 7.91947 -4.63668 C 7.9 -4.68 7.87 -4.72 7.85184 -4.76768 C 7.83 -4.81 7.81 -4.85 7.78146 -4.89614 C 7.76 -4.94 7.73 -4.98 7.70834 -5.02197 C 7.68 -5.06 7.66 -5.1 7.63246 -5.14507 C 7.61 -5.18 7.59 -5.21 7.56608 -5.24701 C 7.54 -5.28 7.52 -5.31 7.49773 -5.34685 C 7.45 -5.41 7.4 -5.48 7.35502 -5.54003 C 7.26 -5.67 7.15 -5.79 7.04486 -5.89873 C 6.83 -6.12 6.59 -6.32 6.32245 -6.48734 C 6.12 -6.62 5.46 -7.05 4.29538 -6.91831" />
    <path d="M 7.73871 0.06953 L 6.89108 0.20523 L 6.89108 -0.76151 A 5 2.56468 80.90429 0 0 3.44774 -6.7826 L 4.29538 -6.91831" />
    <path d="M 5.19582 0.25678 A 2 0.51153 180 0 0 6.89108 0.20523" />
    <path d="M 5.19582 0.47664 L 0.11002 1.29086 L 0.11002 0.32412 A 5 2.56468 80.90429 0 0 -3.33332 -5.69698 L 1.75248 -6.5112" />
    <path d="M -0.64641 0.98178 L 0.11002 1.29086" />
    <path d="M -1.58525 1.56227 A 2 0.51153 180 0 0 -0.64641 1.12868 L -0.64641 0.16194 C -0.65 0.11 -0.65 0.06 -0.64792 0.01355 C -0.65 -0.04 -0.65 -0.09 -0.65241 -0.13534 C -0.65 -0.19 -0.66 -0.23 -0.65989 -0.28461 C -0.66 -0.33 -0.67 -0.38 -0.67033 -0.43412 C -0.67 -0.48 -0.68 -0.53 -0.68371 -0.58374 C -0.69 -0.63 -0.69 -0.68 -0.70001 -0.73334 C -0.71 -0.78 -0.71 -0.83 -0.71922 -0.88278 C -0.73 -0.93 -0.73 -0.98 -0.74131 -1.03191 C -0.75 -1.1 -0.76 -1.17 -0.77595 -1.23397 C -0.79 -1.3 -0.8 -1.37 -0.81582 -1.43486 C -0.83 -1.5 -0.84 -1.57 -0.86086 -1.63423 C -0.88 -1.7 -0.89 -1.77 -0.91102 -1.83174 C -0.93 -1.9 -0.95 -1.96 -0.96623 -2.02706 C -0.99 -2.09 -1.01 -2.16 -1.02643 -2.21985 C -1.05 -2.28 -1.07 -2.35 -1.09155 -2.40982 C -1.11 -2.47 -1.14 -2.53 -1.16155 -2.59665 C -1.18 -2.64 -1.2 -2.69 -1.21812 -2.73674 C -1.24 -2.78 -1.26 -2.83 -1.27748 -2.87473 C -1.3 -2.92 -1.32 -2.97 -1.33961 -3.0105 C -1.36 -3.06 -1.38 -3.1 -1.40449 -3.14394 C -1.43 -3.19 -1.45 -3.23 -1.47212 -3.27494 C -1.5 -3.32 -1.52 -3.36 -1.5425 -3.40341 C -1.57 -3.45 -1.59 -3.49 -1.61563 -3.52923 C -1.64 -3.57 -1.67 -3.61 -1.69151 -3.65233 C -1.72 -3.7 -1.75 -3.75 -1.78398 -3.793 C -1.82 -3.84 -1.85 -3.88 -1.88028 -3.92962 C -1.91 -3.97 -1.95 -4.02 -1.98047 -4.06205 C -2.01 -4.11 -2.05 -4.15 -2.08459 -4.19011 C -2.23 -4.36 -2.38 -4.51 -2.54135 -4.65493 C -2.73 -4.89 -3.92 -5.65 -5.02858 -5.42557" />
    <path d="M -1.58525 1.56227 L -2.43288 1.69797" />
    <path d="M -12.18716 3.74592 A 2 0.51153 360 0 1 -12.49189 3.47451" />
    <path d="M -19.71592 -0.17354 A 2 0.51153 180 0 0 -20.45065 0.22261 L -20.45065 2.15609" />
    <path d="M -20.45065 0.22261 A 2 0.51153 180 0 0 -20.14591 0.49402" />
    <path d="M -19.51181 -0.21097 L -19.71592 -0.17354" />
    <path d="M -8.61192 -1.95602 L -19.51181 -0.21097" />
    <path d="M 19.71592 7.50702 L 19.71592 2.67332" />
    <path d="M 19.51181 7.54445 L 19.51181 2.71076" />
    <path d="M 1.71153 10.39423 L 1.71153 5.56053" />
    <path d="M 5.19582 0.47664 L 5.19582 -0.4901 L 0.11002 0.32412" />
    <path d="M 5.19582 -0.4901 A 5 2.56468 80.90429 0 0 1.75248 -6.5112" />
    <path d="M -3.33332 -5.69698 A 5 2.56468 80.90429 0 0 -3.99508 -5.39841" />
    <path d="M -8.37281 -0.73171 L -8.37281 0.23503" />
    <path d="M -5.18931 0.56905 A 3 1.53881 80.90429 0 0 -8.37281 -0.73171" />
    <path d="M -5.18931 1.53579 L -5.18931 0.56905" />
    <path d="M -8.67755 -1.00312 A 2 0.51153 180 0 0 -8.37281 -0.73171" />
    <path d="M 7.73871 0.06953 L 7.73871 -0.89721 A 5 2.56468 80.90429 0 0 4.29538 -6.91831" />
    <path d="M 7.73871 -0.89721 A 2 0.51153 180 0 0 8.67755 -1.3308" />
    <path d="M 7.73871 -0.89721 L 6.89108 -0.76151 A 2 0.51153 0 0 1 5.19309 -0.71019" />
    <path d="M -1.58525 1.56227 L -1.58525 0.59553 A 5 2.56468 80.90429 0 0 -5.02858 -5.42557" />
    <path d="M -1.58525 0.59553 A 2 0.51153 180 0 0 -0.64641 0.16194" />
    <path d="M -1.58525 0.59553 L -2.43288 0.73123 A 2 0.51153 0 0 1 -5.18931 0.56905" />
    <path d="M -12.49189 0.57429 L -12.49189 3.47451" />
    <path d="M 20.45065 2.27717 L 20.45065 7.11087" />
    <path d="M -8.67755 -1.00312 L -8.67755 -0.03638" />
    <path d="M -5.87622 -5.28986 C -5.91 -5.28 -5.94 -5.28 -5.96819 -5.27356 C -6 -5.27 -6.03 -5.26 -6.05957 -5.25418 C -6.09 -5.25 -6.12 -5.24 -6.15024 -5.23176 C -6.18 -5.22 -6.21 -5.22 -6.2401 -5.20633 C -6.27 -5.2 -6.3 -5.19 -6.32903 -5.17793 C -6.36 -5.17 -6.39 -5.16 -6.41695 -5.1466 C -6.45 -5.14 -6.48 -5.12 -6.50375 -5.11241 C -6.53 -5.1 -6.56 -5.09 -6.58935 -5.0754 C -6.62 -5.06 -6.65 -5.05 -6.67365 -5.03563 C -6.7 -5.02 -6.73 -5.01 -6.75658 -4.99317 C -6.78 -4.98 -6.81 -4.96 -6.83806 -4.94807 C -6.86 -4.93 -6.89 -4.92 -6.91802 -4.90042 C -6.94 -4.88 -6.97 -4.87 -6.99639 -4.85028 C -7.02 -4.83 -7.05 -4.82 -7.07311 -4.79774 C -7.1 -4.78 -7.12 -4.76 -7.14811 -4.74288 C -7.17 -4.72 -7.2 -4.71 -7.22136 -4.68578 C -7.24 -4.67 -7.26 -4.65 -7.28162 -4.63603 C -7.3 -4.62 -7.32 -4.6 -7.3406 -4.5848 C -7.36 -4.57 -7.38 -4.55 -7.39825 -4.53213 C -7.42 -4.51 -7.44 -4.5 -7.45458 -4.47806 C -7.47 -4.46 -7.49 -4.44 -7.50957 -4.42265 C -7.53 -4.4 -7.55 -4.39 -7.56321 -4.36595 C -7.58 -4.35 -7.6 -4.33 -7.61549 -4.30799 C -7.63 -4.29 -7.65 -4.27 -7.66641 -4.24882 C -7.68 -4.23 -7.7 -4.21 -7.71351 -4.19152 C -7.73 -4.17 -7.74 -4.15 -7.75939 -4.13321 C -7.77 -4.11 -7.79 -4.09 -7.80403 -4.07391 C -7.82 -4.05 -7.83 -4.03 -7.84745 -4.01366 C -7.9 -3.93 -7.96 -3.85 -8.00899 -3.76371 C -8.47 -2.98 -8.68 -2.02 -8.67755 -1.00312" />
    <path d="M 2.47437 -6.43415 C 2.49 -6.45 2.51 -6.46 2.53081 -6.46609 C 2.55 -6.48 2.57 -6.49 2.58797 -6.49677 C 2.61 -6.51 2.63 -6.52 2.64582 -6.52616 C 2.67 -6.54 2.68 -6.55 2.70435 -6.55425 C 2.72 -6.56 2.74 -6.57 2.76351 -6.58101 C 2.78 -6.59 2.8 -6.6 2.82328 -6.60642 C 2.84 -6.61 2.86 -6.62 2.88364 -6.63046 C 2.9 -6.64 2.92 -6.65 2.94455 -6.65312 C 2.96 -6.66 2.99 -6.67 3.00599 -6.67437 C 3.03 -6.68 3.05 -6.69 3.06791 -6.69421 C 3.09 -6.7 3.11 -6.71 3.13029 -6.71261 C 3.15 -6.72 3.17 -6.72 3.19308 -6.72956 C 3.21 -6.73 3.24 -6.74 3.25627 -6.74504 C 3.28 -6.75 3.3 -6.75 3.31979 -6.75905 C 3.34 -6.76 3.36 -6.77 3.38363 -6.77158 C 3.4 -6.78 3.43 -6.78 3.44774 -6.7826" />
</svg>