<svg version="1.1" xmlns="http://www.w3.org/2000/svg" viewBox="-21.44767567618082 -7.79755191456809 42.89535135236163 19.625757202439154" fill="none" stroke="black" stroke-width="0.6%" vector-effect="non-scaling-stroke">
    <path d="M -20.14327 2.55223 L -1.05162 10.58109 L -1.05162 5.7572 A 2 0.52613 180 0 0 1.59606 5.94087 L 1.70462 5.92423 L 19.50832 2.99455 L 19.71247 2.95606 A 2 0.52613 180 0 0 20.44767 2.5485 A 2 0.52613 180 0 0 20.14327 2.26948 L 9.00647 -2.41402 A 2 0.52613 180 0 0 8.54449 -2.54912" />
    <path d="M -20.14327 2.55223 L -20.14327 0.62268 L -12.18841 3.96804 L -12.18841 1.0737 L -1.05162 5.7572" />
    <path d="M -20.44767 2.27322 A 2 0.52613 180 0 0 -20.14327 2.55223" />
    <path d="M -1.05162 10.58109 A 2 0.52613 180 0 0 1.59606 10.76476 L 1.59606 5.94087" />
    <path d="M 1.59606 10.76476 L 1.70462 10.74813 L 19.50832 7.81844 L 19.71247 7.77996 A 2 0.52613 180 0 0 20.44767 7.3724" />
    <path d="M -8.37333 0.44591 L -8.36647 0.4488 A 3.15 1.61168 260.65546 0 1 -8.37333 0.40777 L -8.37333 0.44591 A 2 0.52613 0 0 1 -8.67774 0.16689" />
    <path d="M -8.67774 -0.12458 L -11.55347 0.34864 L -11.75762 0.38712 A 2 0.52613 180 0 0 -12.49282 0.79468 A 2 0.52613 180 0 0 -12.18841 1.0737" />
    <path d="M 8.79037 -0.52073 L 8.67774 -0.56809" />
    <path d="M 8.67774 -0.50219 L 8.79037 -0.52073" />
    <path d="M 7.73839 0.27698 A 2 0.52613 180 0 0 8.67774 -0.16907 L 8.67774 -1.13385 C 8.68 -1.19 8.68 -1.24 8.67608 -1.28982 C 8.67 -1.34 8.67 -1.39 8.6711 -1.44637 C 8.67 -1.5 8.67 -1.55 8.66283 -1.60333 C 8.66 -1.66 8.66 -1.71 8.65128 -1.76057 C 8.65 -1.81 8.64 -1.87 8.63648 -1.91792 C 8.63 -1.97 8.62 -2.02 8.61845 -2.07523 C 8.61 -2.13 8.6 -2.18 8.59721 -2.23233 C 8.59 -2.28 8.58 -2.34 8.57279 -2.38906 C 8.56 -2.46 8.55 -2.52 8.53643 -2.59147 C 8.52 -2.66 8.51 -2.73 8.49482 -2.79264 C 8.48 -2.86 8.46 -2.93 8.44802 -2.9922 C 8.43 -3.06 8.41 -3.12 8.39612 -3.18982 C 8.38 -3.26 8.36 -3.32 8.33916 -3.38516 C 8.32 -3.45 8.3 -3.51 8.2772 -3.57789 C 8.26 -3.64 8.23 -3.7 8.21032 -3.7677 C 8.19 -3.83 8.16 -3.89 8.13857 -3.95429 C 8.12 -4 8.1 -4.05 8.08081 -4.09379 C 8.06 -4.14 8.04 -4.19 8.02028 -4.23114 C 8 -4.28 7.98 -4.32 7.95699 -4.36623 C 7.94 -4.41 7.91 -4.46 7.89097 -4.49896 C 7.87 -4.54 7.85 -4.59 7.8222 -4.62921 C 7.8 -4.67 7.77 -4.71 7.75071 -4.75689 C 7.73 -4.8 7.7 -4.84 7.67647 -4.88189 C 7.65 -4.92 7.63 -4.96 7.59949 -5.00413 C 7.58 -5.04 7.56 -5.07 7.53368 -5.10311 C 7.51 -5.14 7.49 -5.17 7.466 -5.20006 C 7.42 -5.26 7.37 -5.33 7.3249 -5.38769 C 7.23 -5.51 7.13 -5.63 7.01907 -5.73623 C 6.8 -5.96 6.57 -6.15 6.31001 -6.30939 C 6.11 -6.44 5.44 -6.87 4.27492 -6.73657" />
    <path d="M 7.73839 0.27698 L 6.89059 0.41649 L 6.89059 -0.54829 A 5 2.55822 80.65546 0 0 3.42712 -6.59706 L 4.27492 -6.73657" />
    <path d="M 5.195 0.46935 A 2 0.52613 180 0 0 6.89059 0.41649" />
    <path d="M 5.195 0.69551 L 0.10823 1.53256 L 0.10823 0.56778 A 5 2.55822 80.65546 0 0 -3.35524 -5.48099 L 1.73153 -6.31804" />
    <path d="M -0.64801 1.21453 L 0.10823 1.53256" />
    <path d="M -1.58736 1.81158 A 2 0.52613 180 0 0 -0.64801 1.36553 L -0.64801 0.40075 C -0.65 0.35 -0.65 0.3 -0.64967 0.24478 C -0.65 0.19 -0.65 0.14 -0.65465 0.08823 C -0.66 0.04 -0.66 -0.02 -0.66292 -0.06874 C -0.67 -0.12 -0.67 -0.17 -0.67447 -0.22598 C -0.68 -0.28 -0.68 -0.33 -0.68927 -0.38333 C -0.69 -0.44 -0.7 -0.49 -0.7073 -0.54063 C -0.71 -0.59 -0.72 -0.65 -0.72854 -0.69773 C -0.74 -0.75 -0.74 -0.8 -0.75296 -0.85446 C -0.76 -0.92 -0.78 -0.99 -0.78932 -1.05687 C -0.8 -1.12 -0.82 -1.19 -0.83093 -1.25804 C -0.85 -1.32 -0.86 -1.39 -0.87772 -1.45761 C -0.89 -1.52 -0.91 -1.59 -0.92963 -1.65523 C -0.95 -1.72 -0.97 -1.79 -0.98659 -1.85056 C -1.01 -1.92 -1.03 -1.98 -1.04855 -2.0433 C -1.07 -2.11 -1.09 -2.17 -1.11543 -2.23311 C -1.14 -2.3 -1.16 -2.36 -1.18718 -2.4197 C -1.21 -2.47 -1.23 -2.51 -1.24494 -2.55919 C -1.26 -2.61 -1.28 -2.65 -1.30547 -2.69655 C -1.33 -2.74 -1.35 -2.79 -1.36876 -2.83164 C -1.39 -2.88 -1.41 -2.92 -1.43478 -2.96436 C -1.46 -3.01 -1.48 -3.05 -1.50354 -3.09462 C -1.53 -3.14 -1.55 -3.18 -1.57504 -3.22229 C -1.6 -3.26 -1.62 -3.31 -1.64928 -3.3473 C -1.67 -3.39 -1.7 -3.43 -1.72626 -3.46954 C -1.75 -3.5 -1.77 -3.54 -1.79207 -3.56852 C -1.81 -3.6 -1.84 -3.63 -1.85975 -3.66547 C -1.91 -3.73 -1.95 -3.79 -2.00085 -3.85309 C -2.1 -3.98 -2.2 -4.09 -2.30668 -4.20164 C -2.52 -4.42 -2.76 -4.62 -3.01574 -4.7748 C -3.22 -4.9 -3.88 -5.34 -5.05083 -5.20197" />
    <path d="M -1.58736 1.81158 L -2.43515 1.95109 L -2.43515 0.98631 A 5 2.55822 80.65546 0 0 -5.89863 -5.06246 L -5.05083 -5.20197" />
    <path d="M -5.19139 1.78405 A 2 0.52613 180 0 0 -2.43515 1.95109" />
    <path d="M -5.19826 1.78117 L -5.19139 1.78405 L -5.19139 1.74592 A 3.15 1.61168 260.65546 0 1 -5.19826 1.78117 Z" />
    <path d="M -5.62215 1.85092 L -5.19826 1.78117" />
    <path d="M -5.62215 1.85092 L -8.79037 0.51855 L -8.36647 0.4488" />
    <path d="M -12.18841 3.96804 A 2 0.52613 360 0 1 -12.49282 3.68902" />
    <path d="M -19.71247 -0.0639 A 2 0.52613 180 0 0 -20.44767 0.34366 L -20.44767 2.27322" />
    <path d="M -20.44767 0.34366 A 2 0.52613 180 0 0 -20.14327 0.62268" />
    <path d="M -19.50832 -0.10239 L -19.71247 -0.0639" />
    <path d="M -8.58878 -1.89925 L -19.50832 -0.10239" />
    <path d="M 19.71247 7.77996 L 19.71247 2.95606" />
    <path d="M 19.50832 7.81844 L 19.50832 2.99455" />
    <path d="M 1.70462 10.74813 L 1.70462 5.92423" />
    <path d="M -8.37333 0.40777 C -8.38 0.39 -8.38 0.37 -8.38256 0.34927 C -8.39 0.33 -8.39 0.31 -8.3911 0.2908 C -8.39 0.27 -8.4 0.25 -8.39896 0.23236 C -8.4 0.21 -8.4 0.19 -8.40617 0.17398 C -8.41 0.15 -8.41 0.14 -8.41276 0.11567 C -8.41 0.1 -8.42 0.08 -8.41873 0.05745 C -8.42 0.04 -8.42 0.02 -8.42411 -0.00066 C -8.43 -0.02 -8.43 -0.04 -8.42892 -0.05865 C -8.43 -0.08 -8.43 -0.1 -8.43316 -0.11651 C -8.43 -0.14 -8.44 -0.16 -8.43685 -0.17422 C -8.44 -0.19 -8.44 -0.21 -8.44001 -0.23176 C -8.44 -0.25 -8.44 -0.27 -8.44264 -0.28912 C -8.44 -0.31 -8.44 -0.33 -8.44474 -0.3463 C -8.45 -0.37 -8.45 -0.38 -8.44634 -0.40327 C -8.45 -0.42 -8.45 -0.44 -8.44742 -0.46002 C -8.45 -0.48 -8.45 -0.5 -8.448 -0.51654 C -8.45 -0.53 -8.45 -0.54 -8.44811 -0.55311" />
    <path d="M 5.195 0.69551 L 5.195 -0.26927 L 0.10823 0.56778" />
    <path d="M 5.195 -0.26927 A 5 2.55822 80.65546 0 0 1.73153 -6.31804" />
    <path d="M -3.35524 -5.48099 A 5 2.55822 80.65546 0 0 -4.01545 -5.17866" />
    <path d="M -5.10707 0.85194 C -5.11 0.87 -5.11 0.89 -5.10742 0.91034 C -5.11 0.93 -5.11 0.95 -5.10845 0.96848 C -5.11 0.99 -5.11 1.01 -5.11019 1.02633 C -5.11 1.05 -5.11 1.06 -5.1126 1.08389 C -5.11 1.1 -5.11 1.12 -5.1157 1.14115 C -5.12 1.16 -5.12 1.18 -5.11947 1.19808 C -5.12 1.22 -5.12 1.24 -5.1239 1.25467 C -5.13 1.27 -5.13 1.29 -5.12899 1.31091 C -5.13 1.33 -5.13 1.35 -5.13472 1.36678 C -5.14 1.39 -5.14 1.4 -5.14108 1.42226 C -5.14 1.44 -5.15 1.46 -5.14805 1.47733 C -5.15 1.5 -5.15 1.51 -5.15561 1.53198 C -5.16 1.55 -5.16 1.57 -5.16375 1.58618 C -5.17 1.6 -5.17 1.62 -5.17244 1.63992 C -5.18 1.66 -5.18 1.68 -5.18166 1.69317 C -5.18 1.71 -5.19 1.73 -5.19139 1.74592" />
    <path d="M -5.10707 0.85194 A 3.15 1.61168 80.65546 0 0 -7.28906 -2.95878 A 3.15 1.61168 80.65546 0 0 -8.44811 -0.55311" />
    <path d="M -8.67774 -0.79788 A 2 0.52613 180 0 0 -8.44811 -0.55311" />
    <path d="M 7.73839 0.27698 L 7.73839 -0.6878 A 5 2.55822 80.65546 0 0 4.27492 -6.73657" />
    <path d="M 7.73839 -0.6878 A 2 0.52613 180 0 0 8.67774 -1.13385" />
    <path d="M 7.73839 -0.6878 L 6.89059 -0.54829 A 2 0.52613 0 0 1 5.19211 -0.49568" />
    <path d="M -1.58736 1.81158 L -1.58736 0.8468 A 5 2.55822 80.65546 0 0 -5.05083 -5.20197" />
    <path d="M -1.58736 0.8468 A 2 0.52613 180 0 0 -0.64801 0.40075" />
    <path d="M -1.58736 0.8468 L -2.43515 0.98631 A 2 0.52613 0 0 1 -5.10707 0.85194" />
    <path d="M -12.49282 0.79468 L -12.49282 3.68902" />
    <path d="M 20.44767 2.5485 L 20.44767 7.3724" />
    <path d="M -8.67774 -0.79788 L -8.67774 0.16689" />
    <path d="M -8.67774 -0.79788 C -8.68 -0.86 -8.68 -0.93 -8.67497 -0.99775 C -8.67 -1.06 -8.67 -1.13 -8.66662 -1.19614 C -8.66 -1.26 -8.66 -1.33 -8.65265 -1.39276 C -8.65 -1.46 -8.64 -1.52 -8.63302 -1.58736 C -8.63 -1.65 -8.62 -1.72 -8.60766 -1.77969 C -8.6 -1.84 -8.59 -1.91 -8.57653 -1.96952 C -8.57 -2.03 -8.55 -2.09 -8.53954 -2.15664 C -8.53 -2.22 -8.51 -2.28 -8.49661 -2.34084 C -8.48 -2.39 -8.47 -2.45 -8.45417 -2.49929 C -8.44 -2.55 -8.42 -2.6 -8.40704 -2.65524 C -8.39 -2.71 -8.37 -2.76 -8.35514 -2.80856 C -8.34 -2.86 -8.32 -2.91 -8.29838 -2.95913 C -8.28 -3.01 -8.26 -3.06 -8.23667 -3.10681 C -8.22 -3.16 -8.19 -3.2 -8.16989 -3.25143 C -8.15 -3.3 -8.12 -3.35 -8.09795 -3.39282 C -8.07 -3.44 -8.05 -3.49 -8.02074 -3.53081 C -8.01 -3.55 -7.99 -3.57 -7.98181 -3.59571 C -7.97 -3.62 -7.96 -3.64 -7.94164 -3.65975 C -7.93 -3.68 -7.91 -3.7 -7.90022 -3.7229 C -7.89 -3.74 -7.87 -3.76 -7.85754 -3.78513 C -7.84 -3.81 -7.83 -3.83 -7.81359 -3.84641 C -7.8 -3.87 -7.78 -3.89 -7.76838 -3.9067 C -7.75 -3.93 -7.74 -3.95 -7.72188 -3.96599 C -7.71 -3.99 -7.69 -4 -7.67411 -4.02422 C -7.66 -4.04 -7.64 -4.06 -7.62331 -4.08336 C -7.61 -4.1 -7.59 -4.12 -7.57113 -4.14129 C -7.55 -4.16 -7.54 -4.18 -7.5176 -4.19798 C -7.5 -4.22 -7.48 -4.24 -7.46271 -4.25336 C -7.39 -4.33 -7.31 -4.4 -7.22984 -4.46098 C -6.85 -4.77 -6.39 -4.98 -5.89863 -5.06246" />
    <path d="M 2.4538 -6.2432 C 2.47 -6.25 2.49 -6.26 2.51016 -6.2755 C 2.53 -6.29 2.55 -6.3 2.56725 -6.30654 C 2.59 -6.32 2.61 -6.33 2.62505 -6.3363 C 2.64 -6.35 2.66 -6.36 2.68353 -6.36474 C 2.7 -6.37 2.72 -6.38 2.74265 -6.39185 C 2.76 -6.4 2.78 -6.41 2.8024 -6.41761 C 2.82 -6.43 2.84 -6.43 2.86274 -6.44201 C 2.88 -6.45 2.9 -6.46 2.92365 -6.46501 C 2.94 -6.47 2.96 -6.48 2.98508 -6.4866 C 3.01 -6.49 3.03 -6.5 3.04702 -6.50677 C 3.07 -6.51 3.09 -6.52 3.10942 -6.5255 C 3.13 -6.53 3.15 -6.54 3.17225 -6.54277 C 3.19 -6.55 3.21 -6.55 3.23547 -6.55858 C 3.26 -6.56 3.28 -6.57 3.29905 -6.5729 C 3.32 -6.58 3.34 -6.58 3.36295 -6.58573 C 3.38 -6.59 3.41 -6.59 3.42712 -6.59706" />
</svg>