<svg version="1.1" xmlns="http://www.w3.org/2000/svg" viewBox="-21.456664891586435 -7.980585074842321 42.91332978317286 19.476904955798894" fill="none" stroke="black" stroke-width="0.6%" vector-effect="non-scaling-stroke">
    <path d="M -20.15127 2.41958 L -1.0313 10.25541 L -1.0313 5.42321 A 2 0.51378 180 0 0 1.61703 5.60194 L 1.72553 5.58566 L 19.51888 2.72051 L 19.7229 2.68287 A 2 0.51378 180 0 0 20.45666 2.28518 A 2 0.51378 180 0 0 20.15127 2.01231 L 8.99795 -2.55859 A 2 0.51378 180 0 0 8.55509 -2.68643" />
    <path d="M -20.15127 2.41958 L -20.15127 0.4867 L -12.18461 3.75163 L -12.18461 0.85231 L -1.0313 5.42321" />
    <path d="M -20.45666 2.14671 A 2 0.51378 180 0 0 -20.15127 2.41958" />
    <path d="M -1.0313 10.25541 A 2 0.51378 180 0 0 1.61703 10.43414 L 1.61703 5.60194" />
    <path d="M 1.61703 10.43414 L 1.72553 10.41787 L 19.51888 7.55271 L 19.7229 7.51508 A 2 0.51378 180 0 0 20.45666 7.11739" />
    <path d="M -8.37175 0.23834 L -8.36488 0.24116 A 3.15 1.61685 260.85253 0 1 -8.37175 0.20014 L -8.37175 0.23834 A 2 0.51378 0 0 1 -8.67715 -0.03453" />
    <path d="M -8.67715 -0.31885 L -11.55223 0.14411 L -11.75624 0.18174 A 2 0.51378 180 0 0 -12.49001 0.57943 A 2 0.51378 180 0 0 -12.18461 0.85231" />
    <path d="M 8.78853 -0.70969 L 8.67715 -0.75534" />
    <path d="M 8.67715 -0.69176 L 8.78853 -0.70969" />
    <path d="M 7.73937 0.06954 A 2 0.51378 180 0 0 8.67715 -0.36579 L 8.67715 -1.33223 C 8.68 -1.38 8.68 -1.43 8.67564 -1.48063 C 8.67 -1.53 8.67 -1.58 8.67114 -1.62953 C 8.67 -1.68 8.67 -1.73 8.66365 -1.77882 C 8.66 -1.83 8.66 -1.88 8.6532 -1.92835 C 8.65 -1.98 8.64 -2.03 8.63981 -2.078 C 8.63 -2.13 8.63 -2.18 8.62348 -2.22762 C 8.62 -2.28 8.61 -2.33 8.60425 -2.37708 C 8.6 -2.43 8.59 -2.48 8.58213 -2.52624 C 8.57 -2.59 8.56 -2.66 8.54717 -2.72985 C 8.53 -2.8 8.52 -2.87 8.50689 -2.93228 C 8.49 -3 8.48 -3.07 8.46136 -3.13317 C 8.45 -3.2 8.43 -3.27 8.41063 -3.33216 C 8.39 -3.4 8.37 -3.46 8.35478 -3.52891 C 8.34 -3.59 8.32 -3.66 8.29386 -3.7231 C 8.27 -3.79 8.25 -3.85 8.22793 -3.91441 C 8.21 -3.98 8.18 -4.04 8.15706 -4.10252 C 8.14 -4.15 8.12 -4.2 8.1002 -4.24253 C 8.08 -4.29 8.06 -4.33 8.04054 -4.38043 C 8.02 -4.43 8 -4.47 7.97813 -4.51609 C 7.96 -4.56 7.94 -4.61 7.91295 -4.64942 C 7.89 -4.69 7.87 -4.74 7.84503 -4.78031 C 7.82 -4.82 7.8 -4.87 7.77435 -4.90864 C 7.75 -4.95 7.73 -4.99 7.70093 -5.03433 C 7.68 -5.08 7.65 -5.12 7.62474 -5.15728 C 7.6 -5.2 7.56 -5.25 7.53397 -5.29477 C 7.5 -5.34 7.47 -5.38 7.43952 -5.42838 C 7.38 -5.52 7.31 -5.6 7.23942 -5.68338 C 7.1 -5.85 6.95 -6 6.79316 -6.13963 C 6.64 -6.27 6.48 -6.39 6.30605 -6.49919 C 5.93 -6.76 5.07 -7.07 4.28894 -6.92163" />
    <path d="M 7.73937 0.06954 L 6.89206 0.20597 L 6.89206 -0.76047 A 5 2.56643 80.85253 0 0 3.44163 -6.78519 L 4.28894 -6.92163" />
    <path d="M 5.19746 0.25807 A 2 0.51378 180 0 0 6.89206 0.20597" />
    <path d="M 5.19746 0.47885 L 0.11364 1.29746 L 0.11364 0.33102 A 5 2.56643 80.85253 0 0 -3.33679 -5.6937 L 1.74703 -6.51232" />
    <path d="M -0.64318 0.9873 L 0.11364 1.29746" />
    <path d="M -1.58096 1.57033 A 2 0.51378 180 0 0 -0.64318 1.13501 L -0.64318 0.16857 C -0.64 0.12 -0.64 0.07 -0.64469 0.02017 C -0.65 -0.03 -0.65 -0.08 -0.64919 -0.12874 C -0.65 -0.18 -0.65 -0.23 -0.65668 -0.27802 C -0.66 -0.33 -0.66 -0.38 -0.66713 -0.42756 C -0.67 -0.48 -0.68 -0.53 -0.68052 -0.5772 C -0.69 -0.63 -0.69 -0.68 -0.69685 -0.72683 C -0.7 -0.78 -0.71 -0.83 -0.71608 -0.87629 C -0.72 -0.93 -0.73 -0.98 -0.7382 -1.02545 C -0.75 -1.09 -0.76 -1.16 -0.77316 -1.22906 C -0.79 -1.3 -0.8 -1.36 -0.81344 -1.43149 C -0.83 -1.5 -0.84 -1.57 -0.85897 -1.63237 C -0.88 -1.7 -0.89 -1.77 -0.90969 -1.83136 C -0.93 -1.9 -0.95 -1.96 -0.96555 -2.02812 C -0.99 -2.09 -1.01 -2.16 -1.02647 -2.22231 C -1.05 -2.29 -1.07 -2.35 -1.0924 -2.41361 C -1.12 -2.48 -1.14 -2.54 -1.16327 -2.60173 C -1.18 -2.65 -1.2 -2.7 -1.22013 -2.74174 C -1.24 -2.79 -1.26 -2.83 -1.27979 -2.87963 C -1.3 -2.93 -1.32 -2.97 -1.3422 -3.0153 C -1.36 -3.06 -1.39 -3.1 -1.40738 -3.14863 C -1.43 -3.19 -1.45 -3.24 -1.4753 -3.27951 C -1.5 -3.32 -1.52 -3.37 -1.54598 -3.40785 C -1.57 -3.45 -1.59 -3.49 -1.6194 -3.53354 C -1.64 -3.57 -1.67 -3.62 -1.69559 -3.65649 C -1.73 -3.7 -1.76 -3.75 -1.78636 -3.79398 C -1.82 -3.84 -1.85 -3.88 -1.88081 -3.92759 C -1.95 -4.02 -2.01 -4.1 -2.08091 -4.18258 C -2.22 -4.35 -2.37 -4.5 -2.52716 -4.63883 C -2.68 -4.77 -2.84 -4.89 -3.01428 -4.99839 C -3.39 -5.26 -4.25 -5.56 -5.03139 -5.42083" />
    <path d="M -1.58096 1.57033 L -2.42826 1.70677 L -2.42826 0.74033 A 5 2.56643 80.85253 0 0 -5.8787 -5.28439 L -5.03139 -5.42083" />
    <path d="M -5.18509 1.54432 A 2 0.51378 180 0 0 -2.42826 1.70677" />
    <path d="M -5.19197 1.5415 L -5.18509 1.54432 L -5.18509 1.50611 A 3.15 1.61685 260.85253 0 1 -5.19197 1.5415 Z" />
    <path d="M -5.61562 1.60972 L -5.19197 1.5415" />
    <path d="M -5.61562 1.60972 L -8.78853 0.30938 L -8.36488 0.24116" />
    <path d="M -12.18461 3.75163 A 2 0.51378 360 0 1 -12.49001 3.47876" />
    <path d="M -19.7229 -0.18386 A 2 0.51378 180 0 0 -20.45666 0.21383 L -20.45666 2.14671" />
    <path d="M -20.45666 0.21383 A 2 0.51378 180 0 0 -20.15127 0.4867" />
    <path d="M -19.51888 -0.2215 L -19.7229 -0.18386" />
    <path d="M -8.60789 -1.97843 L -19.51888 -0.2215" />
    <path d="M 19.7229 7.51508 L 19.7229 2.68287" />
    <path d="M 19.51888 7.55271 L 19.51888 2.72051" />
    <path d="M 1.72553 10.41787 L 1.72553 5.58566" />
    <path d="M -8.37175 0.20014 C -8.37 0.18 -8.38 0.16 -8.381 0.14164 C -8.38 0.12 -8.39 0.1 -8.38954 0.08316 C -8.39 0.06 -8.39 0.04 -8.39742 0.02471 C -8.4 0.01 -8.4 -0.01 -8.40464 -0.03369 C -8.41 -0.05 -8.41 -0.07 -8.41124 -0.09202 C -8.41 -0.11 -8.42 -0.13 -8.41722 -0.15027 C -8.42 -0.17 -8.42 -0.19 -8.42261 -0.20842 C -8.42 -0.23 -8.43 -0.25 -8.42742 -0.26645 C -8.43 -0.29 -8.43 -0.31 -8.43167 -0.32435 C -8.43 -0.34 -8.43 -0.36 -8.43537 -0.38211 C -8.44 -0.4 -8.44 -0.42 -8.43853 -0.43972 C -8.44 -0.46 -8.44 -0.48 -8.44117 -0.49715 C -8.44 -0.52 -8.44 -0.54 -8.44328 -0.55439 C -8.44 -0.57 -8.44 -0.59 -8.44487 -0.61144 C -8.45 -0.63 -8.45 -0.65 -8.44596 -0.66827 C -8.45 -0.69 -8.45 -0.71 -8.44654 -0.72489 C -8.45 -0.74 -8.45 -0.75 -8.44665 -0.76151" />
    <path d="M 5.19746 0.47885 L 5.19746 -0.4876 L 0.11364 0.33102" />
    <path d="M 5.19746 -0.4876 A 5 2.56643 80.85253 0 0 1.74703 -6.51232" />
    <path d="M -3.33679 -5.6937 A 5 2.56643 80.85253 0 0 -3.99835 -5.39478" />
    <path d="M -5.10065 0.60976 C -5.1 0.63 -5.1 0.65 -5.101 0.66826 C -5.1 0.69 -5.1 0.71 -5.10204 0.7265 C -5.1 0.75 -5.1 0.77 -5.10377 0.78447 C -5.1 0.8 -5.11 0.82 -5.10619 0.84216 C -5.11 0.86 -5.11 0.88 -5.10929 0.89954 C -5.11 0.92 -5.11 0.94 -5.11307 0.95661 C -5.11 0.98 -5.12 0.99 -5.11751 1.01334 C -5.12 1.03 -5.12 1.05 -5.1226 1.06972 C -5.12 1.09 -5.13 1.11 -5.12834 1.12574 C -5.13 1.14 -5.13 1.16 -5.13471 1.18138 C -5.14 1.2 -5.14 1.22 -5.14168 1.23662 C -5.14 1.25 -5.15 1.27 -5.14926 1.29143 C -5.15 1.31 -5.15 1.33 -5.15741 1.34581 C -5.16 1.36 -5.16 1.38 -5.16611 1.39973 C -5.17 1.42 -5.17 1.44 -5.17535 1.45317 C -5.18 1.47 -5.18 1.49 -5.18509 1.50611" />
    <path d="M -7.82577 0.70394 A 3.15 1.61685 260.85253 0 1 -7.06065 -3.19266" />
    <path d="M -5.10065 0.60976 A 3.15 1.61685 80.85253 0 0 -7.27442 -3.18582 A 3.15 1.61685 80.85253 0 0 -8.44665 -0.76151" />
    <path d="M -8.67715 -1.00097 A 2 0.51378 180 0 0 -8.44665 -0.76151" />
    <path d="M 7.73937 0.06954 L 7.73937 -0.8969 A 5 2.56643 80.85253 0 0 4.28894 -6.92163" />
    <path d="M 7.73937 -0.8969 A 2 0.51378 180 0 0 8.67715 -1.33223" />
    <path d="M 7.73937 -0.8969 L 6.89206 -0.76047 A 2 0.51378 0 0 1 5.19471 -0.70861" />
    <path d="M -1.58096 1.57033 L -1.58096 0.60389 A 5 2.56643 80.85253 0 0 -5.03139 -5.42083" />
    <path d="M -1.58096 0.60389 A 2 0.51378 180 0 0 -0.64318 0.16857" />
    <path d="M -1.58096 0.60389 L -2.42826 0.74033 A 2 0.51378 0 0 1 -5.10065 0.60976" />
    <path d="M -12.49001 0.57943 L -12.49001 3.47876" />
    <path d="M 20.45666 2.28518 L 20.45666 7.11739" />
    <path d="M -8.67715 -1.00097 L -8.67715 -0.03453" />
    <path d="M -8.67715 -1.00097 C -8.68 -1.07 -8.68 -1.14 -8.67414 -1.20924 C -8.67 -1.28 -8.67 -1.35 -8.66508 -1.41592 C -8.66 -1.48 -8.66 -1.55 -8.64993 -1.62069 C -8.64 -1.69 -8.64 -1.76 -8.62864 -1.82325 C -8.62 -1.89 -8.61 -1.96 -8.60114 -2.02332 C -8.59 -2.09 -8.58 -2.16 -8.56736 -2.22065 C -8.56 -2.29 -8.54 -2.35 -8.52723 -2.415 C -8.51 -2.48 -8.5 -2.54 -8.48066 -2.60613 C -8.47 -2.66 -8.45 -2.71 -8.43688 -2.76266 C -8.42 -2.81 -8.41 -2.87 -8.38849 -2.91668 C -8.37 -2.97 -8.35 -3.02 -8.3354 -3.06808 C -8.32 -3.12 -8.3 -3.17 -8.27751 -3.21672 C -8.26 -3.27 -8.24 -3.31 -8.21473 -3.36246 C -8.19 -3.41 -8.17 -3.46 -8.14697 -3.50515 C -8.12 -3.55 -8.1 -3.6 -8.07412 -3.64461 C -8.05 -3.69 -8.02 -3.74 -7.99608 -3.78066 C -7.98 -3.8 -7.97 -3.82 -7.95882 -3.84139 C -7.95 -3.86 -7.93 -3.88 -7.92046 -3.90135 C -7.91 -3.92 -7.89 -3.94 -7.881 -3.96051 C -7.87 -3.98 -7.85 -4 -7.84042 -4.01884 C -7.83 -4.04 -7.81 -4.06 -7.79872 -4.07633 C -7.78 -4.1 -7.77 -4.11 -7.7559 -4.13294 C -7.74 -4.15 -7.73 -4.17 -7.71196 -4.18865 C -7.7 -4.21 -7.68 -4.23 -7.66689 -4.24342 C -7.65 -4.26 -7.63 -4.28 -7.61575 -4.30285 C -7.6 -4.32 -7.58 -4.34 -7.56324 -4.36106 C -7.55 -4.38 -7.53 -4.4 -7.50936 -4.418 C -7.49 -4.44 -7.47 -4.46 -7.45412 -4.47363 C -7.38 -4.55 -7.3 -4.62 -7.21977 -4.68211 C -6.84 -4.99 -6.37 -5.21 -5.8787 -5.28439" />
    <path d="M 2.46898 -6.43618 C 2.49 -6.45 2.51 -6.46 2.52537 -6.46813 C 2.54 -6.48 2.56 -6.49 2.58249 -6.49883 C 2.6 -6.51 2.62 -6.52 2.64029 -6.52825 C 2.66 -6.54 2.68 -6.55 2.69877 -6.55636 C 2.72 -6.57 2.74 -6.57 2.75788 -6.58315 C 2.78 -6.59 2.8 -6.6 2.81761 -6.60859 C 2.84 -6.62 2.86 -6.62 2.87793 -6.63266 C 2.9 -6.64 2.92 -6.65 2.93879 -6.65535 C 2.96 -6.66 2.98 -6.67 3.00018 -6.67664 C 3.02 -6.68 3.04 -6.69 3.06206 -6.69652 C 3.08 -6.7 3.1 -6.71 3.12439 -6.71496 C 3.15 -6.72 3.17 -6.73 3.18714 -6.73195 C 3.21 -6.74 3.23 -6.74 3.25028 -6.74748 C 3.27 -6.75 3.29 -6.76 3.31377 -6.76154 C 3.33 -6.77 3.36 -6.77 3.37756 -6.77411 C 3.4 -6.78 3.42 -6.78 3.44163 -6.78519" />
</svg>