<svg version="1.1" xmlns="http://www.w3.org/2000/svg" viewBox="-6.9945045096984835 -6.29891568633249 13.989009019396967 14.600881005372749" fill="none" stroke="black" stroke-width="0.6%" vector-effect="non-scaling-stroke">
    <path d="M 3.33221 5.43792 L 3.33221 2.59817 A 5 2.4348 66.31698 0 0 -1.67707 -4.31855 A 5 2.4348 66.31698 0 0 -2.04443 -4.06888" />
    <path d="M 3.29409 5.8139 A 1.93649 1.13198 180 0 0 4.03454 5.11905 A 2 2 0 0 0 4.13185 4.5028 A 2 1.1691 0 0 1 3.33221 5.43792 L 2.53234 5.78875 L 2.53234 2.949 L 0.53268 3.82609 A 5 2.4348 66.31698 0 0 -4.4766 -3.09063 L -2.47693 -3.96772" />
    <path d="M 5.33187 4.29436 L 5.33187 1.72108 L 3.33221 2.59817" />
    <path d="M 0.00728 7.30196 L 5.9945 4.67587 L 5.33187 4.15966" />
    <path d="M 0.16736 -2.85807 A 3.2 1.55827 246.31698 0 1 0.63766 -3.36829 A 3.2 1.55827 246.31698 0 1 0.76891 -3.41217" />
    <path d="M 3.32962 2.42766 A 3.2 1.55827 246.31698 0 1 3.21641 2.48919 A 3.2 1.55827 246.31698 0 1 2.51398 2.48668" />
    <path d="M 2.58641 2.15554 A 3.2 1.55827 66.31698 0 0 3.32796 2.37908" />
    <path d="M 0.80224 -3.3793 A 3.2 1.55827 66.31698 0 0 0.44044 -2.54687" />
    <path d="M 2.46743 2.05922 L 2.47639 2.06638 L 2.48528 2.07349 L 2.4941 2.08056 L 2.50285 2.08758 L 2.51153 2.09457 L 2.52014 2.10151 L 2.52867 2.10842 L 2.53714 2.11528 L 2.54553 2.12209 L 2.55385 2.12887 L 2.5621 2.1356 L 2.57028 2.14229 L 2.57838 2.14894 L 2.58641 2.15554" />
    <path d="M 2.53234 3.33441 L 3.33221 3.95753" />
    <path d="M 0.00728 7.30196 L -5.9945 2.62635 L -4.26909 1.86955" />
    <path d="M 2.99027 2.33546 L 2.44524 1.91087" />
    <path d="M -4.17178 2.66451 A 1.93649 1.13198 180 0 0 -3.81802 3.13333 L -0.21695 5.9387 A 1.93649 1.13198 180 0 0 2.49422 6.16474 A 2 0.97392 66.31698 0 0 2.53234 5.78875" />
    <path d="M 3.29409 5.8139 L 2.49422 6.16474" />
    <path d="M 5.33187 4.29436 L 4.13185 3.3595" />
    <path d="M 3.33221 2.73655 L 3.07424 2.53558" />
    <path d="M 5.33187 1.72108 A 5 2.4348 66.31698 0 0 0.3226 -5.19563" />
    <path d="M 2.53234 2.949 A 5 2.4348 66.31698 0 0 -2.47693 -3.96772" />
    <path d="M -4.23292 -1.39174 L -5.46911 -0.84953 L -5.46911 1.86296 L -5.9945 2.62635" />
    <path d="M -4.4766 -3.09063 A 5 2.4348 66.31698 0 0 -5.46911 -0.84953" />
    <path d="M 3.29409 5.8139 A 2 0.97392 66.31698 0 0 3.33221 5.43792" />
    <path d="M -0.26775 5.5553 A 2 1.1691 180 0 0 2.53234 5.78875" />
    <path d="M -0.26775 5.5553 L -0.26775 2.71555 A 3 1.46088 66.31698 0 0 -3.86882 -0.08982 L -3.86882 2.74993 A 2 1.29796 307.91994 0 0 -3.81802 3.13333" />
    <path d="M 0.48553 3.07311 A 2 1.1691 0 0 1 -0.26775 2.71555" />
    <path d="M -3.86882 2.74993 A 2 1.1691 360 0 1 -4.26909 2.04826 A 2 2 0 0 0 -4.17178 2.66451" />
    <path d="M -0.26775 5.5553 A 2 1.29796 307.91994 0 0 -0.21695 5.9387" />
    <path d="M -3.86882 2.74993 L -0.26775 5.5553" />
    <path d="M -4.26909 -0.79149 A 2 1.1691 180 0 0 -3.86882 -0.08982" />
    <path d="M 4.13185 4.5028 L 4.13185 2.24743" />
    <path d="M 3.32996 2.43939 L 3.21641 2.48919" />
    <path d="M -1.67707 -4.31855 L 0.3226 -5.19563" />
    <path d="M -3.54327 -3.13676 C -3.56 -3.12 -3.57 -3.1 -3.58501 -3.08244 C -3.6 -3.06 -3.61 -3.05 -3.62546 -3.02722 C -3.64 -3.01 -3.65 -2.99 -3.66829 -2.96568 C -3.68 -2.94 -3.7 -2.92 -3.70956 -2.90314 C -3.72 -2.88 -3.74 -2.86 -3.74927 -2.83964 C -3.76 -2.82 -3.77 -2.8 -3.78741 -2.77524 C -3.8 -2.75 -3.81 -2.73 -3.82399 -2.70997 C -3.84 -2.69 -3.85 -2.67 -3.85901 -2.64389 C -3.87 -2.62 -3.88 -2.6 -3.89247 -2.57702 C -3.9 -2.55 -3.91 -2.53 -3.9244 -2.50943 C -3.94 -2.48 -3.95 -2.44 -3.96817 -2.40972 C -3.98 -2.38 -4 -2.34 -4.00871 -2.30867 C -4.02 -2.27 -4.03 -2.24 -4.04608 -2.20636 C -4.06 -2.17 -4.07 -2.14 -4.08034 -2.10287 C -4.09 -2.07 -4.1 -2.03 -4.11154 -1.99829 C -4.12 -1.96 -4.13 -1.93 -4.13974 -1.89269 C -4.15 -1.86 -4.16 -1.82 -4.165 -1.78612 C -4.17 -1.75 -4.18 -1.71 -4.18738 -1.67865 C -4.19 -1.64 -4.2 -1.61 -4.20693 -1.57033 C -4.21 -1.53 -4.22 -1.5 -4.22371 -1.46121 C -4.23 -1.42 -4.23 -1.39 -4.23776 -1.35132 C -4.24 -1.31 -4.25 -1.28 -4.24915 -1.24071 C -4.25 -1.2 -4.26 -1.17 -4.25793 -1.1294 C -4.26 -1.09 -4.26 -1.05 -4.26414 -1.01742 C -4.27 -0.98 -4.27 -0.94 -4.26785 -0.90478 C -4.27 -0.87 -4.27 -0.83 -4.26909 -0.79149 L -4.26909 2.04826" />
</svg>